inDegrees=yes
DataType=double
version=3
OpenSimVersion=4.5-2024-07-22-fc2981e9e
endheader
time	pelvis_tx	pelvis_ty	pelvis_tz	pelvis_tilt	pelvis_list	pelvis_rotation	hip_flexion_r	hip_adduction_r	hip_rotation_r	knee_angle_r	ankle_angle_r	hip_flexion_l	hip_adduction_l	hip_rotation_l	knee_angle_l	ankle_angle_l	lumbar_extension	lumbar_bending	lumbar_rotation	arm_flex_r	arm_add_r	arm_rot_r	elbow_flex_r	pro_sup_r	arm_flex_l	arm_add_l	arm_rot_l	elbow_flex_l	pro_sup_l	subtalar_angle_r	mtp_angle_r	subtalar_angle_l	mtp_angle_l	wrist_flex_r	wrist_dev_r	wrist_flex_l	wrist_dev_l	R.ASIS_tx	R.ASIS_ty	R.ASIS_tz	L.ASIS_tx	L.ASIS_ty	L.ASIS_tz	V.Sacral_tx	V.Sacral_ty	V.Sacral_tz	R.Thigh.Upper_tx	R.Thigh.Upper_ty	R.Thigh.Upper_tz	R.Thigh.Front_tx	R.Thigh.Front_ty	R.Thigh.Front_tz	R.Thigh.Rear_tx	R.Thigh.Rear_ty	R.Thigh.Rear_tz	L.Thigh.Upper_tx	L.Thigh.Upper_ty	L.Thigh.Upper_tz	L.Thigh.Front_tx	L.Thigh.Front_ty	L.Thigh.Front_tz	L.Thigh.Rear_tx	L.Thigh.Rear_ty	L.Thigh.Rear_tz	R.Shank.Upper_tx	R.Shank.Upper_ty	R.Shank.Upper_tz	R.Shank.Front_tx	R.Shank.Front_ty	R.Shank.Front_tz	R.Shank.Rear_tx	R.Shank.Rear_ty	R.Shank.Rear_tz	L.Shank.Upper_tx	L.Shank.Upper_ty	L.Shank.Upper_tz	L.Shank.Front_tx	L.Shank.Front_ty	L.Shank.Front_tz	L.Shank.Rear_tx	L.Shank.Rear_ty	L.Shank.Rear_tz	R.Heel_tx	R.Heel_ty	R.Heel_tz	R.Midfoot.Sup_tx	R.Midfoot.Sup_ty	R.Midfoot.Sup_tz	R.Midfoot.Lat_tx	R.Midfoot.Lat_ty	R.Midfoot.Lat_tz	R.Toe.Tip_tx	R.Toe.Tip_ty	R.Toe.Tip_tz	L.Heel_tx	L.Heel_ty	L.Heel_tz	L.Midfoot.Sup_tx	L.Midfoot.Sup_ty	L.Midfoot.Sup_tz	L.Midfoot.Lat_tx	L.Midfoot.Lat_ty	L.Midfoot.Lat_tz	L.Toe.Tip_tx	L.Toe.Tip_ty	L.Toe.Tip_tz	Sternum_tx	Sternum_ty	Sternum_tz	R.Acromium_tx	R.Acromium_ty	R.Acromium_tz	L.Acromium_tx	L.Acromium_ty	L.Acromium_tz	R.Bicep_tx	R.Bicep_ty	R.Bicep_tz	L.Bicep_tx	L.Bicep_ty	L.Bicep_tz	R.Elbow_tx	R.Elbow_ty	R.Elbow_tz	L.Elbow_tx	L.Elbow_ty	L.Elbow_tz	R.Wrist.Med_tx	R.Wrist.Med_ty	R.Wrist.Med_tz	R.Wrist.Lat_tx	R.Wrist.Lat_ty	R.Wrist.Lat_tz	L.Wrist.Med_tx	L.Wrist.Med_ty	L.Wrist.Med_tz	L.Wrist.Lat_tx	L.Wrist.Lat_ty	L.Wrist.Lat_tz	R.Toe.Lat_tx	R.Toe.Lat_ty	R.Toe.Lat_tz	R.Toe.Med_tx	R.Toe.Med_ty	R.Toe.Med_tz	L.Toe.Lat_tx	L.Toe.Lat_ty	L.Toe.Lat_tz	L.Toe.Med_tx	L.Toe.Med_ty	L.Toe.Med_tz	R.Temple_tx	R.Temple_ty	R.Temple_tz	L.Temple_tx	L.Temple_ty	L.Temple_tz	Top.Head_tx	Top.Head_ty	Top.Head_tz
4.9915	0.8225923099999999	0.9399700549999999	-0.185720645	4.602250869999998	2.177615265000008	-0.7382877400000063	-4.170330969999828	-4.571384390000021	-4.584235414999982	-92.98005394000018	-7.843156189999927	27.88732115999994	7.213805250000015	-4.051676510000002	-52.25395321500008	17.53866198500007	-15.61977252500001	-4.680906395000021	10.76665157499994	-12.16058679999998	-28.90081837499998	6.22022548500011	78.10881711999981	118.418111905	-18.37388392499984	-30.16964086999999	13.94431310000005	66.88438485999995	109.38736525	0	0	0	0	0	0	0	0	0.8509909399999999	0.9699657299999999	-0.05480570500000001	0.8413962449999999	0.9787183849999999	-0.3068591	0.6498360599999999	0.9899589549999999	-0.1898264550000001	0.7714532150000005	0.6546494749999999	-0.008920359999999941	0.8469977700000006	0.5948460700000001	-0.06291273999999995	0.7426791100000008	0.5579289549999998	-0.01321856999999991	0.9381246049999996	0.7103081399999996	-0.348046815	0.9847156399999997	0.6720981149999996	-0.26317299	0.9477311399999995	0.5803283399999997	-0.314953265	0.6653897100000011	0.4479374699999998	-0.02705727999999991	0.6071708050000011	0.3853052699999998	-0.07356378999999995	0.5798580300000011	0.4519379249999998	-0.0300854499999999	0.9302548799999992	0.4120580299999997	-0.300861575	0.973766969999999	0.3353886899999996	-0.2381529099999999	0.8970081499999991	0.3488699949999998	-0.2998595	0.294179565000001	0.5232784699999998	-0.1178834	0.2802432900000011	0.3792369549999998	-0.1609671949999999	0.2640935050000012	0.4097274799999998	-0.06047945499999991	0.2610311850000013	0.2382993749999998	-0.1354308949999999	0.7488323649999983	0.06748919000000006	-0.203190745	0.8912347749999983	0.06655186499999989	-0.15143953	0.8839052699999982	0.05408045999999991	-0.253425065	1.035229154999998	0.0748283749999997	-0.184484745	0.90760239	1.314525875	-0.2372125699999999	0.8554365849999997	1.41658594	-0.004584679999999976	0.7593112200000002	1.42143982	-0.4062613200000001	0.7646663249999995	1.24177893	0.08194439999999995	0	0	0	0.7274031049999995	1.156617675	0.1286276699999999	0.5839544650000007	1.173489014999999	-0.4977332150000003	0.9372048649999992	1.015243069999999	0.08338352500000022	0.9400676899999992	1.030595824999999	0.02281614500000019	0.7368952650000011	0.9628990499999996	-0.5098942400000001	0.7704642350000009	0.9891079999999997	-0.452218975	0.2379281900000013	0.3164957599999998	-0.05432530999999987	0.2362374850000012	0.3118221249999997	-0.1697983799999999	0.9622059599999983	0.04445269499999982	-0.265843265	0.9661000699999983	0.04397627999999981	-0.15236927	0.98610678	1.548443665	-0.170819925	0.9804906950000001	1.55001001	-0.31293123	1.049071655	1.62692859	-0.26023195
5.011546184738957	0.8163841310607133	0.9341733401889911	-0.1864448182305694	4.237631058381746	2.43306540139854	-0.9515454650933189	4.187003206768501	-5.127438850295307	-3.696996578462056	-99.71055608937885	-4.631649638197405	24.37440579079837	7.857145668261298	-3.876817047453333	-54.47000189234588	20.67298555210734	-15.83597360967871	-5.385480872360043	7.985803652118979	-11.42566818736356	-27.83862830446489	11.09523241270035	70.06775807074631	117.3375926744342	-12.06132026361665	-29.71086590845498	15.2211171325325	65.69608751275453	110.9275789801016	0	0	0	0	0	0	0	0	0.8447891085542167	0.9641298834561776	-0.05535401383652257	0.8363957603708952	0.9739501647011575	-0.3080527236309946	0.6438871742404912	0.9863304505551618	-0.1919525607016301	0.7951998213536506	0.6541616148948737	-0.006591308927474544	0.8760588600401615	0.6031742923789278	-0.06174866148830616	0.7797823808929848	0.5541920596078431	-0.009524924474367966	0.9168257963595552	0.6960515670989837	-0.3468998157831324	0.9639739660004718	0.655236399416489	-0.2626761032223009	0.9213034447082439	0.5661497368910934	-0.3151110868178597	0.7193809182754564	0.4409258010040159	-0.02406827689109372	0.6623174386912372	0.3795674394472004	-0.07253057579966926	0.6334377030616599	0.4430073926813133	-0.02634158830144097	0.8907951001819028	0.3990370616276868	-0.299979124171982	0.925849646423339	0.3191172975407508	-0.2352108018922749	0.8512516769265283	0.3395054001204816	-0.298883340907158	0.3393603416678492	0.5089071612119059	-0.1160416885754783	0.3362225020340201	0.3647145801653668	-0.1580624879707063	0.3222120972407293	0.3945538959697608	-0.05714119604063304	0.3286319338058136	0.2262973846987947	-0.1308360965509094	0.6686981201370163	0.06998742837231287	-0.2033715950318923	0.8126355850602387	0.06307994675171266	-0.1508309138601465	0.803784106574531	0.05069511604299543	-0.2530801396527285	0.9588990126246139	0.06281812315615372	-0.1836653012000945	0.9042841232742734	1.304761202119064	-0.2317206245924874	0.8460396367162766	1.41073009778644	-0.003523783047484024	0.7655266557595088	1.412148269010158	-0.4111148882778173	0.7452732414008971	1.239234950342547	0.07937303025513812	0	0	0	0.7042240464894867	1.154962289286558	0.1250710194046774	0.618699808863691	1.146799915773682	-0.5091419320363811	0.8971124208315604	0.9853104242924633	0.09247079842901039	0.9037440711079602	0.9967591758445539	0.0308503546491852	0.7885686543633372	0.9499514489676351	-0.5101480775809119	0.814924422277346	0.9787245740916606	-0.4498961211764705	0.303799124540517	0.3010358762934083	-0.04974948126860372	0.2976250051452889	0.2950837136333563	-0.1653270760099219	0.8827751240963833	0.03760021979683423	-0.2659925038034491	0.8875236477699009	0.03764356952279694	-0.1519460697802976	0.9853975120529176	1.542727633130168	-0.1694818349964564	0.9808507374368061	1.54423065854713	-0.3115846444271202	1.049761624649185	1.620802553595559	-0.2583201427261989
5.031592369477912	0.8110328105245984	0.9326488104593373	-0.1872734237048193	3.422835398237948	2.432419037853915	-0.9675973114608432	13.64419981182485	-4.887239233674697	-2.8762330274134	-103.8778348932631	-1.485084924617203	19.36000823497487	8.325454951311499	-3.160056295269825	-53.80603431398468	23.29301214703942	-15.34261606946034	-5.555520331099398	4.532304579732662	-11.62270029255773	-26.76275236172063	15.47393782124626	64.10716761371232	115.0268087096548	-7.092707563667146	-29.34293716700678	14.78557814320155	66.83595845336849	111.8311476939772	0	0	0	0	0	0	0	0	0.8395720928564256	0.9632417825627509	-0.05614291655120483	0.8321836619026104	0.9721680536006526	-0.3095463511508534	0.6392538486495983	0.9876929289257028	-0.1940194565035141	0.821479389802962	0.6625098809864458	-0.004865887855170675	0.9062311271435745	0.6217678567005522	-0.06254704370858435	0.8205581270318777	0.5611325748970885	-0.007088584490461836	0.8880073655484436	0.6829544016516064	-0.3454642747377008	0.9342309421423191	0.6377200303827811	-0.2611330536709338	0.8850452659676202	0.5534562079580823	-0.315565212127259	0.77660885904995	0.4413298362374498	-0.02296352798945783	0.7237826144352413	0.3791114807090863	-0.074203398561747	0.6911836833898095	0.4369591245356426	-0.02435585425828312	0.8387212371071784	0.3864922624811746	-0.2995986832304217	0.8665004438616964	0.3044485282693273	-0.2337862670657631	0.7940981141829817	0.3306893532894076	-0.2983080112387048	0.3878134281237453	0.4810352562901605	-0.1142442497766064	0.4018749790675204	0.3391437604605922	-0.1564421359889558	0.3886135459048698	0.3664711046912649	-0.05510975938755019	0.4136336730120486	0.2056508270494477	-0.1281814637863956	0.5852240866252506	0.07362927303087351	-0.2039536023155121	0.7301807012035639	0.06227679264432731	-0.1512874445971386	0.7194037650489453	0.0485235585316265	-0.2533390178827811	0.8758454925175698	0.05377615777610438	-0.1834308492658133	0.901854257003012	1.303129036213604	-0.2261395653965863	0.8335034108383533	1.41092400532003	-0.002467999078815256	0.7738156884450301	1.410065082067018	-0.4143731504907129	0.7218945253263052	1.243761315902359	0.07596191825677709	0	0	0	0.6761744806513553	1.160647886674197	0.1200413227422188	0.655559294543173	1.130018191769578	-0.5162950027020582	0.8513779474836844	0.9684713998293173	0.09936216215110445	0.8626171020281121	0.9775125365173192	0.03763233856551208	0.8443247769302212	0.9518842045218374	-0.5046299154191767	0.8635177104405123	0.9838974550652611	-0.4430996228488955	0.3831641913416168	0.2733423491139557	-0.04736061785517067	0.3732707079681229	0.2669227135203311	-0.1626018240850904	0.7981911379932224	0.03270454466114456	-0.2666915576430723	0.8043465070268569	0.0348484566566265	-0.1520118357542671	0.9842716599234438	1.541697734185492	-0.1669365080810743	0.9808043504204317	1.543332027767319	-0.3091472077472389	1.050033171563755	1.619424835394076	-0.255112321246235
5.051638554216868	0.8084222714457832	0.9364548957831327	-0.1881571257831325	2.502394177469869	2.075888598433727	-0.7720169461445752	22.24773697325311	-3.964108201566248	-2.552691385903616	-104.2778946175903	1.278580231445816	13.13352790530111	8.2778419079518	-2.03122643036143	-50.26507655939752	24.26817772614457	-14.27599131506022	-5.114812314939749	0.8945934157830862	-13.25331962240967	-26.05820684759036	18.24162909626508	61.32958526566264	112.1220839321686	-4.174472986144557	-29.17408591795181	12.83151195192768	70.34543212771091	111.6565607598795	0	0	0	0	0	0	0	0	0.8368634869879518	0.968457101686747	-0.05720317397590363	0.830209425060241	0.9737930124096386	-0.3110955251807229	0.6372692238554217	0.9940081893975905	-0.1953051428915663	0.8462764025301208	0.6789852007228918	-0.0040080256626506	0.9330275645783135	0.648248819036145	-0.06486942048192776	0.8579721403614462	0.5784737751807232	-0.006550982289156637	0.8551307422891562	0.6749555172289157	-0.3446253430120482	0.8997611696385537	0.6241066992771083	-0.2600277181927711	0.8432868395180717	0.5463503178313254	-0.3166056960240964	0.8282083008433742	0.4503816803614459	-0.02409246108433738	0.7828646072289164	0.3847049675903616	-0.07797929722891572	0.7449028203614464	0.435584111686747	-0.02492728939759039	0.7800566760240956	0.3796882587951807	-0.3006828289156627	0.8028562862650594	0.2960391639759036	-0.2352631710843374	0.7320996942168667	0.3269058006024096	-0.2991550392771085	0.4367253097590368	0.4421016643373488	-0.1135627855421687	0.47192522493976	0.3062248606024092	-0.1562422734939759	0.45746875493976	0.3299418946987946	-0.05484203506024098	0.5075468686747001	0.1814845454216864	-0.1275991556626506	0.5081804869879508	0.08049719939759051	-0.2053779551807229	0.6530147474698785	0.06389039855421691	-0.1530004593975904	0.6402991728915652	0.04809976048192773	-0.2544673813253012	0.7951923297590352	0.0480760459036144	-0.1838288496385542	0.9008852813253012	1.309323706024097	-0.2210050363855421	0.8196541691566263	1.417262859036145	-0.001576961927710835	0.7828774714457832	1.415688484216868	-0.4159060655421687	0.6974714301204815	1.255276847710844	0.07160531662650595	0	0	0	0.6462028463855418	1.173990406987952	0.1133561908433734	0.6888327746987956	1.125370333614458	-0.5187224568674699	0.8066993101204813	0.9675680275903616	0.1027137031325301	0.8233532783132524	0.9760724979518074	0.04197950879518075	0.8951459253012054	0.9699999409638558	-0.4935152683132528	0.908031164096386	1.005823586385542	-0.4326435662650601	0.4684176030120494	0.2391071707228911	-0.0472285868674699	0.4568053822891578	0.232441987590361	-0.1617613938554217	0.717577246626505	0.02977698518072287	-0.2679423181927711	0.7248689485542158	0.03419868180722892	-0.1525681745783133	0.9827713740963856	1.546182200963856	-0.1633235873493975	0.9805297493975903	1.548204277831325	-0.3057487372289156	1.049725578433735	1.623855468554217	-0.2507098424096385
